<svg xmlns="http://www.w3.org/2000/svg" fill="none" viewBox="0 0 128 128">
  <!-- Background Circle with Gradient -->
  <defs>
    <linearGradient id="bgGradient" x1="0%" y1="0%" x2="100%" y2="100%">
      <stop offset="0%" style="stop-color:#8B5CF6;stop-opacity:1" />
      <stop offset="50%" style="stop-color:#3B82F6;stop-opacity:1" />
      <stop offset="100%" style="stop-color:#8B5CF6;stop-opacity:1" />
    </linearGradient>
    <linearGradient id="iconGradient" x1="0%" y1="0%" x2="100%" y2="100%">
      <stop offset="0%" style="stop-color:#FFFFFF;stop-opacity:1" />
      <stop offset="100%" style="stop-color:#E0E7FF;stop-opacity:1" />
    </linearGradient>
  </defs>

  <!-- Background Circle -->
  <circle cx="64" cy="64" r="60" fill="url(#bgGradient)" />

  <!-- Video Camera Icon -->
  <g fill="url(#iconGradient)">
    <!-- Camera Body -->
    <rect x="32" y="48" width="64" height="32" rx="4" fill="url(#iconGradient)" />

    <!-- Camera Lens -->
    <circle cx="64" cy="64" r="16" fill="url(#iconGradient)" />
    <circle cx="64" cy="64" r="12" fill="none" stroke="url(#bgGradient)" stroke-width="2" />
    <circle cx="64" cy="64" r="6" fill="url(#bgGradient)" />

    <!-- Flash/Indicator -->
    <rect x="52" y="40" width="8" height="4" rx="2" fill="url(#iconGradient)" />

    <!-- Play Button Overlay -->
    <path d="M58 56 L58 72 L74 64 Z" fill="url(#bgGradient)" />
  </g>

  <!-- Lightning Bolt for "Instant" -->
  <g fill="url(#iconGradient)">
    <path d="M24 32 L32 32 L28 48 L36 48 L40 64 L32 64 L36 80 L28 80 L24 64 L16 64 L20 48 L28 48 Z" />
  </g>

  <!-- Exclamation Marks for "!!" -->
  <g fill="url(#iconGradient)">
    <rect x="88" y="32" width="4" height="24" rx="2" />
    <circle cx="90" cy="60" r="2" />
    <rect x="96" y="32" width="4" height="24" rx="2" />
    <circle cx="98" cy="60" r="2" />
  </g>

  <style>
    @media (prefers-color-scheme: dark) {
      defs linearGradient stop {
        stop-color: #8B5CF6;
      }
    }
  </style>
</svg>
